<?xml version="1.0" standalone="no"?><!DOCTYPE svg PUBLIC "-//W3C//DTD SVG 1.1//EN" "http://www.w3.org/Graphics/SVG/1.1/DTD/svg11.dtd"><svg t="1719217180341" class="icon" viewBox="0 0 1024 1024" version="1.1" xmlns="http://www.w3.org/2000/svg" p-id="2035" xmlns:xlink="http://www.w3.org/1999/xlink" width="200" height="200"><path d="M397 402s-46.3-133.8 147.7-232.1c0 0 204.2-84.6 396.5 96.1 0 0-161.1-190.5-415.7-114.9 0 0-184.2 56-209.6 252.9 0 0-15.6 117.8 90.1 206.1 0 0-96.4 12.7-151.8-123 0 0-107.4-234.1 175.8-422.9 0 0-206.1 89.2-221.7 341.2 0 0-13.9 208.7 181.9 286.7 0 0 98.7 47.6 211.3-17.3 0 0-4.3 94.4-178.4 105.7 0 0-151.6 1.7-243.4-125.6 0 0-49.4-51.1-81.4-166.3 0 0 4.3 112.6 128.2 233.8 0 0 129 131.6 322.2 76.2 0 0 167.1-41.6 182.7-212.2 0 0 7.8-63.2-4.3-88.3 0 0 77.1 42.4 54.6 181.9 0 0-12.1 129-175.8 209.6 0 0-97 50.2-215.6 37.2 0 0 136.8 23.4 249.4-40.7 0 0 140.3-56.3 181.9-227.8 0 0 57.2-138.6-80.5-268.5 0 0-54.6-53.7-144.6-58 0 0 103.1-89.2 258.1 57.2 0 0 99.6 84 81.4 268.5 0 0-6.9 60.6-24.2 107.4 0 0 45-81.4 34.6-201.8 0 0-11.3-155-109.1-230.4 0 0-84.9-86.6-204.4-89.2-0.3 0-167.5 0-235.9 158.5z" fill="#13227a" p-id="2036"></path></svg>